<svg xmlns="http://www.w3.org/2000/svg" width="1143.806" height="787.794" viewBox="0 0 1143.806 787.794">
  <g id="layer1" transform="translate(0 -2)">
    <path id="Tracé_3" data-name="Tracé 3" d="M0,2V662.552H825.69V2ZM41.285,43.285H784.406v82.569H41.285Zm0,123.854H784.406v454.13H41.285Zm274.4,88.616L177.233,394.2,315.681,532.651l29.19-29.188L235.612,394.2,344.871,284.944Zm194.327,0-29.188,29.19L590.08,394.2,480.82,503.462l29.188,29.188L648.456,394.2Z" fill="#fff"/>
    <g id="appstorm-svgrepo-com" transform="translate(581 351.49)">
      <path id="Tracé_4" data-name="Tracé 4" d="M421.393,23.786H134.078c-12.116,0-19.188,8.959-23.474,21.935L.547,395.647c-3.417,12.664,9.824,21.933,21.94,21.933H307.263c12.108,0,22.611-10.015,26.01-21.933L443.339,45.721C446.445,34.444,433.5,23.786,421.393,23.786ZM156.423,368.567l73.308-145.756-80.979-33.245L275.759,72.79l-42.193,86.942,84.8,32.393Z" transform="translate(119 20.724)" fill="#fff"/>
    </g>
  </g>
</svg>
