<svg xmlns="http://www.w3.org/2000/svg" width="788.585" height="763" viewBox="0 0 788.585 763">
  <g id="online-course-svgrepo-com" transform="translate(-21 -12.793)">
    <path id="Tracé_1" data-name="Tracé 1" d="M0,749.549a26.246,26.246,0,0,0,26.244,26.244h736.1a26.246,26.246,0,0,0,26.244-26.244V39.034a26.246,26.246,0,0,0-26.244-26.241H26.244A26.246,26.246,0,0,0,0,39.034ZM52.485,65.277H736.1V489.093H377.233V396.366l100.708-99.9a26.243,26.243,0,0,0,.074-37.188l-.72-.72L626.54,146.632a26.244,26.244,0,0,0-31.493-41.992L439.8,221.069l-5.087-5.087a26.254,26.254,0,0,0-31.936-4.017L350.421,243a112.846,112.846,0,1,0-198.028,37.868c-25.792,22.516-32.775,56.677-35.611,70.6-7.368,36.155-8.372,83.279-8.51,137.631H52.485Zm189.4,207.316a60.356,60.356,0,1,1,60.355-60.357A60.424,60.424,0,0,1,241.881,272.593Zm-73.67,89.349c3.733-18.321,8.73-29.7,14.383-36.867h125.1a26.248,26.248,0,0,0,13.379-3.667l90.94-53.905,10.26,10.26L332.509,366.8a26.234,26.234,0,0,0-7.764,18.631V489.09H160.755C160.887,437.638,161.8,393.39,168.21,361.942ZM736.1,541.577v181.73H52.485V541.577H736.1Z" transform="translate(21)" fill="#fff"/>
    <path id="Tracé_2" data-name="Tracé 2" d="M685.042,603.246H212.719v-8.074a26.242,26.242,0,1,0-52.485,0v8.074h-56.7a26.244,26.244,0,0,0,0,52.487h56.7v8.074a26.242,26.242,0,1,0,52.485,0v-8.074H685.042a26.244,26.244,0,0,0,0-52.487Z" fill="#fff"/>
    <text id="_2" data-name="2" transform="translate(548.293 180.293)" fill="#fff" font-size="300" font-family="FranklinGothic-Medium, Franklin Gothic" font-weight="500"><tspan x="0" y="275">2</tspan></text>
  </g>
</svg>
