<svg xmlns="http://www.w3.org/2000/svg" width="457.346" height="457.346" viewBox="0 0 457.346 457.346">
  <g id="video-add-svgrepo-com" transform="translate(8 8)">
    <path id="Tracé_1" data-name="Tracé 1" d="M418.52,147.782V272.738c0,4.79,0,9.372-.417,13.953a23.972,23.972,0,0,0-2.916-3.54c-.208-.208-.417-.625-.625-.833a92.591,92.591,0,0,0-68.934-30.406,93.559,93.559,0,0,0-80.18,142.033,85.863,85.863,0,0,0,17.077,20.618,2.875,2.875,0,0,1,.833.625c1.041,1.041,2.083,1.874,3.332,2.916-4.373.417-9.163.417-13.953.417H147.782C43.652,418.52,2,376.868,2,272.738V147.782C2,43.652,43.652,2,147.782,2H272.738C376.868,2,418.52,43.652,418.52,147.782Z" fill="none" stroke="#fff" stroke-linecap="round" stroke-linejoin="round" stroke-width="20"/>
    <path id="Tracé_2" data-name="Tracé 2" d="M2.52,7.11H397.38" transform="translate(10.31 101.308)" fill="none" stroke="#fff" stroke-linecap="round" stroke-linejoin="round" stroke-width="20"/>
    <path id="Tracé_3" data-name="Tracé 3" d="M8.52,2.11V103.324" transform="translate(129.266 2.178)" fill="none" stroke="#fff" stroke-linecap="round" stroke-linejoin="round" stroke-width="20"/>
    <path id="Tracé_4" data-name="Tracé 4" d="M15.48,2.11V93.953" transform="translate(267.254 2.178)" fill="none" stroke="#fff" stroke-linecap="round" stroke-linejoin="round" stroke-width="20"/>
    <path id="Tracé_5" data-name="Tracé 5" d="M201.434,107.717a85.029,85.029,0,0,1-2.707,21.867,98.241,98.241,0,0,1-10.83,26.449,93.436,93.436,0,0,1-80.18,45.4,90.581,90.581,0,0,1-58.729-21.243h-.208c-1.25-1.041-2.291-1.874-3.332-2.916a2.875,2.875,0,0,0-.833-.625,85.863,85.863,0,0,1-17.077-20.618A93.525,93.525,0,0,1,107.717,14a92.591,92.591,0,0,1,68.934,30.406c.208.208.417.625.625.833a23.972,23.972,0,0,1,2.916,3.54A91.983,91.983,0,0,1,201.434,107.717Z" transform="translate(237.912 237.912)" fill="none" stroke="#fff" stroke-linecap="round" stroke-linejoin="round" stroke-miterlimit="10" stroke-width="20"/>
    <path id="Tracé_6" data-name="Tracé 6" d="M86.8,18.48H16.82" transform="translate(293.823 326.732)" fill="none" stroke="#fff" stroke-linecap="round" stroke-linejoin="round" stroke-miterlimit="10" stroke-width="20"/>
    <path id="Tracé_7" data-name="Tracé 7" d="M18.5,16.84V86.815" transform="translate(327.129 294.22)" fill="none" stroke="#fff" stroke-linecap="round" stroke-linejoin="round" stroke-miterlimit="10" stroke-width="20"/>
  </g>
</svg>
