<svg id="Calque_1" data-name="Calque 1" xmlns="http://www.w3.org/2000/svg" viewBox="0 0 541.81 469.25"><defs><style>.cls-1{fill:#f0f0f0;}.cls-2{fill:red;}</style></defs><g id="Calque_2" data-name="Calque 2"><polyline class="cls-1" points="384.96 37 499.08 234.58 385.03 432.2 156.86 432.24 42.74 234.67 156.78 37.04 384.96 37"/></g><g id="fullLogo"><path id="Tracé_7" data-name="Tracé 7" d="M165.35,348.88V120.36h37.83l61.38,141.08v57.35h-9.92L203.18,191.66V348.88ZM277.26,262l61.45-141.68h37.77V348.88H338.71V191.66l-51.2,127.13H277.26Z"/><path id="Tracé_8" data-name="Tracé 8" class="cls-2" d="M385,37,499.08,234.58,385,432.2l-228.17,0L42.74,234.67l114-197.62L385,37M406.3,0,135.43.07.05,234.68,135.52,469.22l270.87-.05,135.38-234.6Z"/></g></svg>