<svg xmlns:xlink="http://www.w3.org/1999/xlink" xmlns="http://www.w3.org/2000/svg" viewBox="63.994863510130926 74.8005838394165 384.01025390625 384.010498046875" width="384.01025390625"  height="384.010498046875" ><defs><linearGradient x1="6.25%" y1="7.291015625%" x2="6.25%" y2="-4.8203125%" id="o_f10m62l78_13" gradientUnits="userSpaceOnUse" data-uid="o_f10m62l78_65"><stop offset="0%" stop-color="rgb(151, 148, 250)" stop-opacity="1.00" data-uid="o_f10m62l78_66"></stop><stop offset="35%" stop-color="rgb(105, 104, 238)" stop-opacity="1.00" data-uid="o_f10m62l78_67"></stop><stop offset="66%" stop-color="rgb(82, 70, 198)" stop-opacity="1.00" data-uid="o_f10m62l78_68"></stop><stop offset="100%" stop-color="rgb(48, 47, 78)" stop-opacity="1.00" data-uid="o_f10m62l78_69"></stop></linearGradient><linearGradient x1="6.203125%" y1="6.396484375%" x2="6.203125%" y2="0.232421875%" id="o_f10m62l78_5" gradientUnits="userSpaceOnUse" data-uid="o_f10m62l78_24"><stop offset="0%" stop-color="rgb(156, 148, 250)" stop-opacity="1.00" data-uid="o_f10m62l78_25"></stop><stop offset="31%" stop-color="rgb(114, 104, 238)" stop-opacity="1.00" data-uid="o_f10m62l78_26"></stop><stop offset="59%" stop-color="rgb(77, 70, 198)" stop-opacity="1.00" data-uid="o_f10m62l78_27"></stop><stop offset="70%" stop-color="rgb(48, 47, 78)" stop-opacity="1.00" data-uid="o_f10m62l78_28"></stop><stop offset="73%" stop-color="rgb(48, 47, 78)" stop-opacity="1.00" data-uid="o_f10m62l78_29"></stop></linearGradient><linearGradient x1="6.103515625%" y1="5.95703125%" x2="6.103515625%" y2="-0.39648437499999994%" id="o_f10m62l78_9" gradientUnits="userSpaceOnUse" data-uid="o_f10m62l78_45"><stop offset="0%" stop-color="rgb(148, 152, 250)" stop-opacity="1.00" data-uid="o_f10m62l78_46"></stop><stop offset="28%" stop-color="rgb(105, 104, 238)" stop-opacity="1.00" data-uid="o_f10m62l78_47"></stop><stop offset="51%" stop-color="rgb(77, 70, 198)" stop-opacity="1.00" data-uid="o_f10m62l78_48"></stop><stop offset="85%" stop-color="rgb(48, 47, 78)" stop-opacity="1.00" data-uid="o_f10m62l78_49"></stop></linearGradient><linearGradient x1="6.1875%" y1="4.6875%" x2="6.1875%" y2="-1.0625%" id="o_f10m62l78_7" gradientUnits="userSpaceOnUse" data-uid="o_f10m62l78_35"><stop offset="0%" stop-color="rgb(158, 148, 250)" stop-opacity="1.00" data-uid="o_f10m62l78_36"></stop><stop offset="20%" stop-color="rgb(105, 104, 238)" stop-opacity="1.00" data-uid="o_f10m62l78_37"></stop><stop offset="39%" stop-color="rgb(88, 70, 198)" stop-opacity="1.00" data-uid="o_f10m62l78_38"></stop><stop offset="70%" stop-color="rgb(48, 47, 78)" stop-opacity="1.00" data-uid="o_f10m62l78_39"></stop></linearGradient><linearGradient x1="6.25%" y1="5.923828125%" x2="6.25%" y2="1.37890625%" id="o_f10m62l78_11" gradientUnits="userSpaceOnUse" data-uid="o_f10m62l78_55"><stop offset="0%" stop-color="rgb(149, 148, 250)" stop-opacity="1.00" data-uid="o_f10m62l78_56"></stop><stop offset="28%" stop-color="rgb(114, 104, 238)" stop-opacity="1.00" data-uid="o_f10m62l78_57"></stop><stop offset="58%" stop-color="rgb(80, 70, 198)" stop-opacity="1.00" data-uid="o_f10m62l78_58"></stop><stop offset="100%" stop-color="rgb(48, 47, 78)" stop-opacity="1.00" data-uid="o_f10m62l78_59"></stop></linearGradient><linearGradient x1="6.255859375%" y1="6.119140625%" x2="6.255859375%" y2="-0.3359375%" id="o_f10m62l78_8" gradientUnits="userSpaceOnUse" data-uid="o_f10m62l78_40"><stop offset="0%" stop-color="rgb(149, 148, 250)" stop-opacity="1.00" data-uid="o_f10m62l78_41"></stop><stop offset="16%" stop-color="rgb(104, 106, 238)" stop-opacity="1.00" data-uid="o_f10m62l78_42"></stop><stop offset="42%" stop-color="rgb(71, 70, 198)" stop-opacity="1.00" data-uid="o_f10m62l78_43"></stop><stop offset="90%" stop-color="rgb(48, 47, 78)" stop-opacity="1.00" data-uid="o_f10m62l78_44"></stop></linearGradient><linearGradient x1="6.25%" y1="18.08203125%" x2="6.25%" y2="5.333984375%" id="o_f10m62l78_4" gradientUnits="userSpaceOnUse" data-uid="o_f10m62l78_19"><stop offset="0%" stop-color="rgb(158, 148, 250)" stop-opacity="1.00" data-uid="o_f10m62l78_20"></stop><stop offset="35%" stop-color="rgb(105, 104, 238)" stop-opacity="1.00" data-uid="o_f10m62l78_21"></stop><stop offset="62%" stop-color="rgb(71, 70, 198)" stop-opacity="1.00" data-uid="o_f10m62l78_22"></stop><stop offset="96%" stop-color="rgb(48, 47, 78)" stop-opacity="1.00" data-uid="o_f10m62l78_23"></stop></linearGradient><linearGradient x1="6.25%" y1="8.65234375%" x2="6.25%" y2="3.849609375%" id="o_f10m62l78_10" gradientUnits="userSpaceOnUse" data-uid="o_f10m62l78_50"><stop offset="16%" stop-color="rgb(148, 152, 250)" stop-opacity="1.00" data-uid="o_f10m62l78_51"></stop><stop offset="34%" stop-color="rgb(105, 104, 238)" stop-opacity="1.00" data-uid="o_f10m62l78_52"></stop><stop offset="66%" stop-color="rgb(77, 70, 198)" stop-opacity="1.00" data-uid="o_f10m62l78_53"></stop><stop offset="100%" stop-color="rgb(48, 47, 78)" stop-opacity="1.00" data-uid="o_f10m62l78_54"></stop></linearGradient><linearGradient x1="6.25%" y1="13.052734375%" x2="6.25%" y2="8.123046875%" id="o_f10m62l78_12" gradientUnits="userSpaceOnUse" data-uid="o_f10m62l78_60"><stop offset="0%" stop-color="rgb(151, 148, 250)" stop-opacity="1.00" data-uid="o_f10m62l78_61"></stop><stop offset="13%" stop-color="rgb(105, 104, 238)" stop-opacity="1.00" data-uid="o_f10m62l78_62"></stop><stop offset="41%" stop-color="rgb(70, 109, 198)" stop-opacity="1.00" data-uid="o_f10m62l78_63"></stop><stop offset="100%" stop-color="rgb(48, 47, 78)" stop-opacity="1.00" data-uid="o_f10m62l78_64"></stop></linearGradient><linearGradient x1="6.25%" y1="6.900390625%" x2="6.25%" y2="-2.888671875%" id="o_f10m62l78_6" gradientUnits="userSpaceOnUse" data-uid="o_f10m62l78_30"><stop offset="16%" stop-color="rgb(149, 148, 250)" stop-opacity="1.00" data-uid="o_f10m62l78_31"></stop><stop offset="40%" stop-color="rgb(104, 106, 238)" stop-opacity="1.00" data-uid="o_f10m62l78_32"></stop><stop offset="66%" stop-color="rgb(70, 72, 198)" stop-opacity="1.00" data-uid="o_f10m62l78_33"></stop><stop offset="100%" stop-color="rgb(48, 47, 78)" stop-opacity="1.00" data-uid="o_f10m62l78_34"></stop></linearGradient><linearGradient id="o_f10m62l78_3" x1="32" y1="28.21" x2="32" y2="-2.08" href="#linear-gradient-11" data-uid="o_f10m62l78_18"></linearGradient><linearGradient x1="4.73046875%" y1="5.740234375%" x2="4.615234375%" y2="7.8046875%" id="o_f10m62l78_14" gradientUnits="userSpaceOnUse" data-uid="o_f10m62l78_70"><stop offset="0%" stop-color="rgb(148, 204, 250)" stop-opacity="1.00" data-uid="o_f10m62l78_71"></stop><stop offset="33%" stop-color="rgb(238, 137, 104)" stop-opacity="1.00" data-uid="o_f10m62l78_72"></stop><stop offset="67%" stop-color="rgb(198, 70, 79)" stop-opacity="1.00" data-uid="o_f10m62l78_73"></stop><stop offset="100%" stop-color="rgb(48, 47, 78)" stop-opacity="1.00" data-uid="o_f10m62l78_74"></stop></linearGradient></defs><g xmlns="http://www.w3.org/2000/svg" transform="matrix(1, 0, 0, 1, -0.0000095367431640625, 10.805832440700073)"><g transform="matrix(7.007485866546631, 0, 0, 7.007485866546631, 31.76044273376465, 31.760528564453125)"><path class="cls-1" fill="url(&quot;#o_f10m62l78_13&quot;)" transform="matrix(1, 0, 0, 1, -9.324101597485424e-7, -0.000014066697985981591)" data-type="circle" data-cx="32" data-cy="32" data-r="27.4" d="M32 32m-27.4 0a27.4 27.4 0 1 0 54.8 0a27.4 27.4 0 1 0 -54.8 0"></path><path class="cls-2" d="M55.79 18.42l-3.09 1.44a5.93 5.93 0 0 1-5.11.08 4.88 4.88 0 0 0-4.23-.06L39 21.9a6.66 6.66 0 0 1-5.62 0 4.1 4.1 0 0 0-3.45 0l-1.58.74a7.61 7.61 0 0 1-6.42 0l-4.34-2a4 4 0 0 0-3.35 0l-3.47 1.61a2.89 2.89 0 0 1-2.44 0l-1.63-.78a27.24 27.24 0 0 0-2 8.4l3.65 1.7a2.89 2.89 0 0 0 2.44 0L14.25 30a4 4 0 0 1 3.35 0l4.34 2a7.61 7.61 0 0 0 6.42 0l1.58-.74a4.1 4.1 0 0 1 3.45 0l1.94.9a2.06 2.06 0 0 0 1.74 0l6.27-2.91a4.7 4.7 0 0 1 4-.06 6.17 6.17 0 0 0 5.31.05l4-1.85a21.73 21.73 0 0 1 2.2-.88 27.2 27.2 0 0 0-3.06-8.09z" fill="url(&quot;#o_f10m62l78_5&quot;)" transform="matrix(0.9438170790672302, 0, 0, 0.9438170790672302, 0.26406028866767883, 1.0348917245864868)"></path><path class="cls-3" d="M55.84 18.5a27.51 27.51 0 0 0-6-7.3 6.15 6.15 0 0 1-2.41-.59 5 5 0 0 0-4.21.09l-4.2 2a6.66 6.66 0 0 1-5.62 0 4.1 4.1 0 0 0-3.45 0l-1.58.73a7.61 7.61 0 0 1-6.42 0l-4.34-2a4 4 0 0 0-3.35 0l-.61.28a27.45 27.45 0 0 0-7 9.89l1.67.78a2.89 2.89 0 0 0 2.44 0l3.47-1.61a4 4 0 0 1 3.35 0l4.34 2a7.61 7.61 0 0 0 6.42 0l1.59-.77a4.1 4.1 0 0 1 3.45 0A6.66 6.66 0 0 0 39 22l4.33-2a4.7 4.7 0 0 1 4-.06 6.17 6.17 0 0 0 5.31.05z" fill="url(&quot;#o_f10m62l78_9&quot;)" transform="matrix(1, 0, 0, 1, 0, 0)"></path><path class="cls-4" d="M32 4.6a27.3 27.3 0 0 0-18.57 7.26l.82-.38a4 4 0 0 1 3.35 0l4.34 2a7.61 7.61 0 0 0 6.42 0l1.58-.74a4.1 4.1 0 0 1 3.45 0 6.66 6.66 0 0 0 5.62 0l4.35-2a4.86 4.86 0 0 1 4.1 0 6.16 6.16 0 0 0 2.49.57A27.28 27.28 0 0 0 32 4.6z" fill="url(&quot;#o_f10m62l78_7&quot;)" transform="matrix(1, 0, 0, 1, 0, 0)"></path><path class="cls-5" d="M32 4.6a27.27 27.27 0 0 0-16.25 5.34 16.71 16.71 0 0 0 32.49 0A27.27 27.27 0 0 0 32 4.6z" fill="url(&quot;#o_f10m62l78_11&quot;)" transform="matrix(1, 0, 0, 1, 0, 0)"></path><path class="cls-6" d="M48 10.85a5.94 5.94 0 0 1-.57-.24 5 5 0 0 0-4.21.09l-4.2 2a6.66 6.66 0 0 1-5.62 0 4.1 4.1 0 0 0-3.45 0l-1.58.73a7.61 7.61 0 0 1-6.42 0l-4.34-2a4 4 0 0 0-1.54-.43 16.73 16.73 0 0 0 12.87 11.46l1-.46a4.1 4.1 0 0 1 3.45 0 6.65 6.65 0 0 0 1.54.49A16.73 16.73 0 0 0 48 10.85z" fill="url(&quot;#o_f10m62l78_8&quot;)" transform="matrix(1, 0, 0, 1, 0, 0)"></path><path class="cls-7" d="M5.56 39.17a27.4 27.4 0 0 0 52.89 0z" fill="url(&quot;#o_f10m62l78_4&quot;)" transform="matrix(1, 0, 0, 1, 0, 0)"></path><path class="cls-8" d="M48.29 35.18l-.67-.11a4.86 4.86 0 0 1-1.33-.42l-3.82-1.85a8.76 8.76 0 0 0-4.63-.8l-4.7.44q-.85.08-1.71.08h-7.55a7.8 7.8 0 0 0-3 .61l-2.53 1.07a4.1 4.1 0 0 1-.6.2l-2.56.6a1.5 1.5 0 0 0-.91.67l-2.15 3.48h39.74l-1.23-2.29a3.27 3.27 0 0 0-2.35-1.68z" fill="url(&quot;#o_f10m62l78_10&quot;)" transform="matrix(1, 0, 0, 1, -9.324101597485424e-7, 0.0441138781607151)"></path><path class="cls-9" d="M32 59.4a25.61 25.61 0 0 0 6.12-.75l-5.65-5.05h-.94l-5.65 5.06a25.61 25.61 0 0 0 6.12.74z" fill="url(&quot;#o_f10m62l78_12&quot;)" transform="matrix(1, 0, 0, 1, 0, 0)"></path><path class="cls-11" fill="url(&quot;#o_f10m62l78_6&quot;)" transform="matrix(1, 0, 0, 1, 0, 0)" data-type="circle" data-cx="32" data-cy="22.11" data-r="4.78" d="M32 22.11m-4.78 0a4.78 4.78 0 1 0 9.56 0a4.78 4.78 0 1 0 -9.56 0"></path><path class="cls-12" d="M32 17.33a4.77 4.77 0 0 0-4.67 5.78 7.58 7.58 0 0 0 1-.38l1.6-.73a4.1 4.1 0 0 1 3.45 0 6.66 6.66 0 0 0 3.35.59 4.69 4.69 0 0 0 0-.47A4.78 4.78 0 0 0 32 17.33z" fill="url(&quot;#o_f10m62l78_3&quot;)" transform="matrix(1, 0, 0, 1, 0, 0)"></path><path class="cls-13" d="M24.69 27.75a.4.4 0 0 0-.3.48.4.4 0 0 0-.48-.3.4.4 0 0 0 .3-.48.4.4 0 0 0 .48.3z" fill="url(&quot;#o_f10m62l78_14&quot;)" transform="matrix(1, 0, 0, 1, 0, 0)"></path><path class="cls-14" d="M41.75 25.29a.4.4 0 0 0-.3.48.4.4 0 0 0-.48-.3.4.4 0 0 0 .3-.48.4.4 0 0 0 .48.3z" fill="#FFFFFF" transform="matrix(1, 0, 0, 1, 0, 0)"></path><path class="cls-15" d="M16.71 24.82a.46.46 0 0 0-.35.56.46.46 0 0 0-.56-.38.46.46 0 0 0 .35-.56.46.46 0 0 0 .56.38z" fill="#FFFFFF" transform="matrix(1, 0, 0, 1, 0, 0)"></path><path class="cls-16" d="M50.85 24.37a.46.46 0 0 0-.35.56.46.46 0 0 0-.56-.35.46.46 0 0 0 .35-.56.46.46 0 0 0 .56.35z" fill="#FFFFFF" transform="matrix(1, 0, 0, 1, 0, 0)"></path><path class="cls-17" d="M21.84 20.76a.23.23 0 0 0-.17.28.23.23 0 0 0-.28-.17.23.23 0 0 0 .17-.28.23.23 0 0 0 .28.17z" fill="#FFFFFF" transform="matrix(1, 0, 0, 1, 0, 0)"></path><path class="cls-18" d="M43.61 19.25a.23.23 0 0 0-.17.28.23.23 0 0 0-.28-.17.23.23 0 0 0 .17-.28.23.23 0 0 0 .28.17z" fill="#FFFFFF" transform="matrix(1, 0, 0, 1, 0, 0)"></path><path class="cls-19" d="M46.13 26.84a.23.23 0 0 1-.45.1.23.23 0 1 1 .45-.1z" fill="#FFFFFF" transform="matrix(1, 0, 0, 1, 0, 0)"></path></g><g transform="matrix(2.2471179962158203, -2.2501637935638428, 2.2501637935638428, 2.2471179962158203, 148.13873291015625, 291.66180419921875)"><path id="path24633" d="m 2174.7156 1151.8288 0 8.4331 -8.4331 8.4331 0 -8.4331 -4.2165 -4.2165" fill="#FFFFFF" stroke="#3B3C3D" stroke-width="1.49684px" stroke-linecap="butt" stroke-linejoin="miter" stroke-miterlimit="4" stroke-dasharray="none" stroke-opacity="1" transform="matrix(1.002092957496643, 0, 0, 1.0021321773529053, -2146.9208984375, -1125.9542236328125)"></path><path id="path24631" d="m 2162.0305 1139.1792 -8.433 0 -8.4331 8.4331 8.4331 0 4.2519 4.2165" fill="#FFFFFF" stroke="#3B3C3D" stroke-width="1.49684px" stroke-linecap="butt" stroke-linejoin="miter" stroke-miterlimit="4" stroke-dasharray="none" stroke-opacity="1" transform="matrix(1.002092957496643, 0, 0, 1.0021321773529053, -2146.9208984375, -1125.9542236328125)"></path><path id="path24626" d="m 2174.6801 1126.5296 14.7756 -2.0905 -2.0905 14.7401 -12.6496 12.6496 -12.6496 4.2166 -4.2166 -4.2166 4.1811 -12.6496 z" fill="#FFFFFF" stroke="#3B3C3D" stroke-width="1.49684px" stroke-linecap="butt" stroke-linejoin="miter" stroke-miterlimit="4" stroke-dasharray="none" stroke-opacity="1" transform="matrix(1.002092957496643, 0, 0, 1.0021321773529053, -2146.9208984375, -1125.9542236328125)"></path><path id="path24646" d="m 2149.0975 1159.5178 -6.13 6.1654" fill="none" stroke="#3B3C3D" stroke-width="1.49684px" stroke-linecap="butt" stroke-linejoin="miter" stroke-miterlimit="4" stroke-dasharray="none" stroke-opacity="1" transform="matrix(1.002092957496643, 0, 0, 1.0021321773529053, -2146.9208984375, -1125.9542236328125)"></path><path id="path24648" d="m 2154.377 1164.7619 -6.1654 6.1654" fill="none" stroke="#3B3C3D" stroke-width="1.49684px" stroke-linecap="butt" stroke-linejoin="miter" stroke-miterlimit="4" stroke-dasharray="none" stroke-opacity="1" transform="matrix(1.002092957496643, 0, 0, 1.0021321773529053, -2146.9208984375, -1125.9542236328125)"></path></g></g></svg>